<svg xmlns="http://www.w3.org/2000/svg" xmlns:xlink="http://www.w3.org/1999/xlink" width="500" zoomAndPan="magnify" viewBox="0 0 375 374.999991" height="500" preserveAspectRatio="xMidYMid meet" version="1.0"><defs><g/></defs><rect x="-37.5" width="450" fill="#ffffff" y="-37.499999" height="449.999989" fill-opacity="1"/><rect x="-37.5" width="450" fill="#ffffff" y="-37.499999" height="449.999989" fill-opacity="1"/><path stroke-linecap="butt" transform="matrix(0.75, 0, 0, 0.75, 71.635737, 172.624997)" fill="none" stroke-linejoin="miter" d="M 0.00130847 4.000004 L 308.970079 4.000004 " stroke="#7ed957" stroke-width="8" stroke-opacity="1" stroke-miterlimit="4"/><g fill="#231f20" fill-opacity="1"><g transform="translate(74.015495, 206.736498)"><g><path d="M 23.953125 -30.09375 L 16.046875 -21.859375 L 16.046875 0 L 7.515625 0 L 7.515625 -64.703125 L 16.046875 -64.703125 L 16.046875 -32.703125 L 44.796875 -64.703125 L 55.109375 -64.703125 L 29.640625 -36.125 L 57.109375 0 L 46.890625 0 Z M 23.953125 -30.09375 "/></g></g></g><g fill="#231f20" fill-opacity="1"><g transform="translate(142.450518, 206.736498)"><g><path d="M 52.21875 -57.6875 L 31.421875 -57.6875 L 31.421875 0 L 22.9375 0 L 22.9375 -57.6875 L 2.171875 -57.6875 L 2.171875 -64.703125 L 52.21875 -64.703125 Z M 52.21875 -57.6875 "/></g></g></g><g fill="#231f20" fill-opacity="1"><g transform="translate(208.130423, 206.736498)"><g><path d="M 16.671875 0 L 8.125 0 L 8.125 -64.703125 L 16.671875 -64.703125 Z M 16.671875 0 "/></g></g></g><g fill="#231f20" fill-opacity="1"><g transform="translate(244.259453, 206.736498)"><g><path d="M 7.515625 0 L 7.515625 -64.703125 L 28.671875 -64.703125 C 35.691406 -64.703125 40.96875 -63.25 44.5 -60.34375 C 48.039062 -57.445312 49.8125 -53.15625 49.8125 -47.46875 C 49.8125 -44.445312 48.953125 -41.769531 47.234375 -39.4375 C 45.515625 -37.113281 43.175781 -35.316406 40.21875 -34.046875 C 43.71875 -33.066406 46.476562 -31.207031 48.5 -28.46875 C 50.53125 -25.726562 51.546875 -22.460938 51.546875 -18.671875 C 51.546875 -12.859375 49.664062 -8.289062 45.90625 -4.96875 C 42.144531 -1.65625 36.828125 0 29.953125 0 Z M 16.046875 -30.265625 L 16.046875 -6.984375 L 30.125 -6.984375 C 34.101562 -6.984375 37.238281 -8.007812 39.53125 -10.0625 C 41.820312 -12.125 42.96875 -14.960938 42.96875 -18.578125 C 42.96875 -26.367188 38.734375 -30.265625 30.265625 -30.265625 Z M 16.046875 -37.109375 L 28.9375 -37.109375 C 32.664062 -37.109375 35.644531 -38.039062 37.875 -39.90625 C 40.113281 -41.769531 41.234375 -44.300781 41.234375 -47.5 C 41.234375 -51.0625 40.195312 -53.648438 38.125 -55.265625 C 36.050781 -56.878906 32.898438 -57.6875 28.671875 -57.6875 L 16.046875 -57.6875 Z M 16.046875 -37.109375 "/></g></g></g><g fill="#231f20" fill-opacity="1"><g transform="translate(42.001333, 248.911565)"><g><path d="M 13.640625 -7.28125 C 13.640625 -5.664062 13.332031 -4.316406 12.71875 -3.234375 C 12.101562 -2.160156 11.210938 -1.351562 10.046875 -0.8125 C 8.878906 -0.269531 7.476562 0 5.84375 0 L 1.796875 0 L 1.796875 -14.28125 L 6.28125 -14.28125 C 7.78125 -14.28125 9.078125 -14.015625 10.171875 -13.484375 C 11.273438 -12.953125 12.128906 -12.164062 12.734375 -11.125 C 13.335938 -10.09375 13.640625 -8.8125 13.640625 -7.28125 Z M 10.5 -7.203125 C 10.5 -8.253906 10.34375 -9.117188 10.03125 -9.796875 C 9.726562 -10.484375 9.273438 -10.988281 8.671875 -11.3125 C 8.066406 -11.632812 7.320312 -11.796875 6.4375 -11.796875 L 4.828125 -11.796875 L 4.828125 -2.5 L 6.125 -2.5 C 7.601562 -2.5 8.703125 -2.890625 9.421875 -3.671875 C 10.140625 -4.460938 10.5 -5.640625 10.5 -7.203125 Z M 10.5 -7.203125 "/></g></g></g><g fill="#231f20" fill-opacity="1"><g transform="translate(70.360248, 248.911565)"><g><path d="M 10.53125 0 L 9.5 -3.40625 L 4.296875 -3.40625 L 3.265625 0 L 0 0 L 5.046875 -14.34375 L 8.734375 -14.34375 L 13.796875 0 Z M 8.78125 -5.9375 L 7.75 -9.265625 C 7.675781 -9.484375 7.585938 -9.765625 7.484375 -10.109375 C 7.378906 -10.460938 7.269531 -10.816406 7.15625 -11.171875 C 7.050781 -11.535156 6.96875 -11.851562 6.90625 -12.125 C 6.84375 -11.851562 6.753906 -11.519531 6.640625 -11.125 C 6.523438 -10.726562 6.414062 -10.351562 6.3125 -10 C 6.207031 -9.65625 6.128906 -9.410156 6.078125 -9.265625 L 5.0625 -5.9375 Z M 8.78125 -5.9375 "/></g></g></g><g fill="#231f20" fill-opacity="1"><g transform="translate(97.713698, 248.911565)"><g><path d="M 1.796875 0 L 1.796875 -14.28125 L 4.828125 -14.28125 L 4.828125 0 Z M 1.796875 0 "/></g></g></g><g fill="#231f20" fill-opacity="1"><g transform="translate(117.892217, 248.911565)"><g><path d="M 1.796875 0 L 1.796875 -14.28125 L 4.828125 -14.28125 L 4.828125 -2.5 L 10.609375 -2.5 L 10.609375 0 Z M 1.796875 0 "/></g></g></g><g fill="#231f20" fill-opacity="1"><g transform="translate(142.746642, 248.911565)"><g><path d="M 6.234375 -8.40625 L 9.21875 -14.28125 L 12.484375 -14.28125 L 7.75 -5.5625 L 7.75 0 L 4.734375 0 L 4.734375 -5.453125 L 0 -14.28125 L 3.28125 -14.28125 Z M 6.234375 -8.40625 "/></g></g></g><g fill="#231f20" fill-opacity="1"><g transform="translate(168.782247, 248.911565)"><g/></g></g><g fill="#231f20" fill-opacity="1"><g transform="translate(187.535542, 248.911565)"><g><path d="M 5.953125 -14.28125 C 7.253906 -14.28125 8.328125 -14.125 9.171875 -13.8125 C 10.015625 -13.5 10.640625 -13.023438 11.046875 -12.390625 C 11.453125 -11.765625 11.65625 -10.96875 11.65625 -10 C 11.65625 -9.351562 11.53125 -8.785156 11.28125 -8.296875 C 11.039062 -7.804688 10.71875 -7.390625 10.3125 -7.046875 C 9.90625 -6.710938 9.46875 -6.4375 9 -6.21875 L 13.203125 0 L 9.84375 0 L 6.4375 -5.484375 L 4.828125 -5.484375 L 4.828125 0 L 1.796875 0 L 1.796875 -14.28125 Z M 5.75 -11.796875 L 4.828125 -11.796875 L 4.828125 -7.9375 L 5.796875 -7.9375 C 6.804688 -7.9375 7.523438 -8.101562 7.953125 -8.4375 C 8.390625 -8.78125 8.609375 -9.273438 8.609375 -9.921875 C 8.609375 -10.597656 8.375 -11.078125 7.90625 -11.359375 C 7.4375 -11.648438 6.71875 -11.796875 5.75 -11.796875 Z M 5.75 -11.796875 "/></g></g></g><g fill="#231f20" fill-opacity="1"><g transform="translate(214.29352, 248.911565)"><g><path d="M 10.015625 0 L 1.796875 0 L 1.796875 -14.28125 L 10.015625 -14.28125 L 10.015625 -11.796875 L 4.828125 -11.796875 L 4.828125 -8.65625 L 9.65625 -8.65625 L 9.65625 -6.1875 L 4.828125 -6.1875 L 4.828125 -2.5 L 10.015625 -2.5 Z M 10.015625 0 "/></g></g></g><g fill="#231f20" fill-opacity="1"><g transform="translate(239.050317, 248.911565)"><g><path d="M 6.359375 -14.28125 C 8.203125 -14.28125 9.546875 -13.882812 10.390625 -13.09375 C 11.234375 -12.300781 11.65625 -11.210938 11.65625 -9.828125 C 11.65625 -9.203125 11.5625 -8.601562 11.375 -8.03125 C 11.1875 -7.457031 10.878906 -6.945312 10.453125 -6.5 C 10.023438 -6.0625 9.457031 -5.710938 8.75 -5.453125 C 8.039062 -5.203125 7.164062 -5.078125 6.125 -5.078125 L 4.828125 -5.078125 L 4.828125 0 L 1.796875 0 L 1.796875 -14.28125 Z M 6.203125 -11.796875 L 4.828125 -11.796875 L 4.828125 -7.5625 L 5.828125 -7.5625 C 6.390625 -7.5625 6.878906 -7.632812 7.296875 -7.78125 C 7.710938 -7.9375 8.035156 -8.171875 8.265625 -8.484375 C 8.492188 -8.804688 8.609375 -9.21875 8.609375 -9.71875 C 8.609375 -10.414062 8.410156 -10.9375 8.015625 -11.28125 C 7.628906 -11.625 7.023438 -11.796875 6.203125 -11.796875 Z M 6.203125 -11.796875 "/></g></g></g><g fill="#231f20" fill-opacity="1"><g transform="translate(265.164039, 248.911565)"><g><path d="M 14.75 -7.15625 C 14.75 -6.0625 14.613281 -5.0625 14.34375 -4.15625 C 14.070312 -3.25 13.65625 -2.46875 13.09375 -1.8125 C 12.539062 -1.164062 11.835938 -0.664062 10.984375 -0.3125 C 10.128906 0.03125 9.117188 0.203125 7.953125 0.203125 C 6.796875 0.203125 5.789062 0.03125 4.9375 -0.3125 C 4.082031 -0.664062 3.375 -1.164062 2.8125 -1.8125 C 2.257812 -2.46875 1.84375 -3.25 1.5625 -4.15625 C 1.289062 -5.0625 1.15625 -6.066406 1.15625 -7.171875 C 1.15625 -8.648438 1.398438 -9.9375 1.890625 -11.03125 C 2.378906 -12.132812 3.125 -12.988281 4.125 -13.59375 C 5.132812 -14.195312 6.421875 -14.5 7.984375 -14.5 C 9.523438 -14.5 10.796875 -14.195312 11.796875 -13.59375 C 12.796875 -12.988281 13.535156 -12.132812 14.015625 -11.03125 C 14.503906 -9.9375 14.75 -8.644531 14.75 -7.15625 Z M 4.34375 -7.15625 C 4.34375 -6.164062 4.46875 -5.304688 4.71875 -4.578125 C 4.96875 -3.859375 5.359375 -3.304688 5.890625 -2.921875 C 6.421875 -2.535156 7.109375 -2.34375 7.953125 -2.34375 C 8.816406 -2.34375 9.515625 -2.535156 10.046875 -2.921875 C 10.578125 -3.304688 10.960938 -3.859375 11.203125 -4.578125 C 11.453125 -5.304688 11.578125 -6.164062 11.578125 -7.15625 C 11.578125 -8.65625 11.296875 -9.832031 10.734375 -10.6875 C 10.179688 -11.550781 9.265625 -11.984375 7.984375 -11.984375 C 7.128906 -11.984375 6.429688 -11.789062 5.890625 -11.40625 C 5.359375 -11.019531 4.96875 -10.460938 4.71875 -9.734375 C 4.46875 -9.015625 4.34375 -8.15625 4.34375 -7.15625 Z M 4.34375 -7.15625 "/></g></g></g><g fill="#231f20" fill-opacity="1"><g transform="translate(294.635777, 248.911565)"><g><path d="M 5.953125 -14.28125 C 7.253906 -14.28125 8.328125 -14.125 9.171875 -13.8125 C 10.015625 -13.5 10.640625 -13.023438 11.046875 -12.390625 C 11.453125 -11.765625 11.65625 -10.96875 11.65625 -10 C 11.65625 -9.351562 11.53125 -8.785156 11.28125 -8.296875 C 11.039062 -7.804688 10.71875 -7.390625 10.3125 -7.046875 C 9.90625 -6.710938 9.46875 -6.4375 9 -6.21875 L 13.203125 0 L 9.84375 0 L 6.4375 -5.484375 L 4.828125 -5.484375 L 4.828125 0 L 1.796875 0 L 1.796875 -14.28125 Z M 5.75 -11.796875 L 4.828125 -11.796875 L 4.828125 -7.9375 L 5.796875 -7.9375 C 6.804688 -7.9375 7.523438 -8.101562 7.953125 -8.4375 C 8.390625 -8.78125 8.609375 -9.273438 8.609375 -9.921875 C 8.609375 -10.597656 8.375 -11.078125 7.90625 -11.359375 C 7.4375 -11.648438 6.71875 -11.796875 5.75 -11.796875 Z M 5.75 -11.796875 "/></g></g></g><g fill="#231f20" fill-opacity="1"><g transform="translate(321.393756, 248.911565)"><g><path d="M 7.3125 0 L 4.28125 0 L 4.28125 -11.765625 L 0.40625 -11.765625 L 0.40625 -14.28125 L 11.1875 -14.28125 L 11.1875 -11.765625 L 7.3125 -11.765625 Z M 7.3125 0 "/></g></g></g></svg>